<?xml version="1.0" encoding="UTF-8"?>
<svg width="95px" height="80px" viewBox="0 0 95 80" version="1.1" xmlns="http://www.w3.org/2000/svg" xmlns:xlink="http://www.w3.org/1999/xlink">
    <!-- Generator: Sketch 51.1 (57501) - http://www.bohemiancoding.com/sketch -->
    <title>Icon 2</title>
    <desc>Created with Sketch.</desc>
    <defs></defs>
    <g id="Icon-2" stroke="none" stroke-width="1" fill="none" fill-rule="evenodd">
        <g id="Group-22" transform="translate(9.000000, 3.000000)">
            <polygon id="Fill-1" fill="#484F59" points="25.990386 0 24 0.701655537 27.009614 11 29 10.2983445"></polygon>
            <polygon id="Fill-2" fill="#484F59" points="15.5469688 20 8 12.7073733 9.45303115 11 17 18.2926267"></polygon>
            <polygon id="Fill-3" fill="#484F59" points="0 29.9814158 10.5165755 32 11 30.0179084 0.48266316 28"></polygon>
            <polygon id="Fill-4" fill="#484F59" points="1.70170435 50 1 48.0097561 11.2982957 45 12 46.9902439"></polygon>
            <polygon id="Fill-5" fill="#484F59" points="13.7060229 66 12 64.5469688 19.2939771 57 21 58.4523104"></polygon>
            <polygon id="Fill-6" fill="#484F59" points="46 63.7010367 49.0085041 74 51 73.2997287 47.9914959 63"></polygon>
            <polygon id="Fill-7" fill="#484F59" points="65.5466197 63 58 55.7066052 59.4533803 54 67 61.2933948"></polygon>
            <polygon id="Fill-8" fill="#484F59" points="65 42.9790682 75.5157472 45 76 43.0209318 65.4834914 41"></polygon>
            <polygon id="Fill-9" fill="#484F59" points="64.7010367 28 64 26.0092012 74.2989633 23 75 24.9907988"></polygon>
            <polygon id="Fill-10" fill="#484F59" points="56.7066052 16 55 14.5465032 62.2933948 7 64 8.45277578"></polygon>
            <g id="Group-21" transform="translate(14.000000, 1.000000)">
                <path d="M45.8062746,35.996601 C45.8062746,48.3629515 35.8609254,58.3917969 23.6051159,58.3917969 C11.3440841,58.3917969 1.40544921,48.3629515 1.40544921,35.996601 C1.40544921,23.6325082 11.3440841,13.6021577 23.6051159,13.6021577 C35.8609254,13.6021577 45.8062746,23.6325082 45.8062746,35.996601" id="Fill-11" fill="#FFDC69"></path>
                <path d="M23.6052651,14.731099 C11.9813444,14.731099 2.52464603,24.2707691 2.52464603,35.9966763 C2.52464603,47.7225835 11.9813444,57.2630062 23.6052651,57.2630062 C35.2299317,57.2630062 44.6873762,47.7225835 44.6873762,35.9966763 C44.6873762,24.2707691 35.2299317,14.731099 23.6052651,14.731099 M23.6052651,59.5207381 C10.7474079,59.5207381 0.286550794,48.968099 0.286550794,35.9966763 C0.286550794,23.0260062 10.7474079,12.473367 23.6052651,12.473367 C36.4638683,12.473367 46.9254714,23.0260062 46.9254714,35.9966763 C46.9254714,48.968099 36.4638683,59.5207381 23.6052651,59.5207381" id="Fill-13" fill="#484F59"></path>
                <path d="M38.5914762,35.996601 C38.5914762,44.3449412 31.8786825,51.1136216 23.6051905,51.1136216 C15.3279683,51.1136216 8.62039683,44.3449412 8.62039683,35.996601 C8.62039683,27.6505186 15.3279683,20.880333 23.6051905,20.880333 C31.8786825,20.880333 38.5914762,27.6505186 38.5914762,35.996601" id="Fill-15" fill="#FFC400"></path>
                <polygon id="Fill-17" fill="#E5E8EC" points="43.3110222 29.5504 24.389419 29.5504 31.4707524 6.09482268 3.90189524 43.6228433 22.8234984 43.6228433 15.7421651 67.077668"></polygon>
                <path d="M6.12380159,42.4941278 L24.3344365,42.4941278 L18.6996587,61.1557876 L41.0888175,30.6794165 L22.8781825,30.6794165 L28.5129603,12.0170041 L6.12380159,42.4941278 Z M12.784373,72.9998495 L21.3130079,44.7518598 L1.67969048,44.7518598 L34.428246,0.172942268 L25.8996111,28.4216845 L45.5329286,28.4216845 L12.784373,72.9998495 Z" id="Fill-19" fill="#484F59"></path>
            </g>
        </g>
    </g>
</svg>