<?xml version="1.0" encoding="UTF-8"?>
<svg width="95px" height="80px" viewBox="0 0 95 80" version="1.1" xmlns="http://www.w3.org/2000/svg" xmlns:xlink="http://www.w3.org/1999/xlink">
    <!-- Generator: Sketch 51.1 (57501) - http://www.bohemiancoding.com/sketch -->
    <title>Icon 3</title>
    <desc>Created with Sketch.</desc>
    <defs>
        <polygon id="path-1" points="0.113297542 0.260101464 18.239506 0.260101464 18.239506 18.2060079 0.113297542 18.2060079"></polygon>
        <polygon id="path-3" points="0 82 42.662125 82 42.662125 0.271575016 0 0.271575016"></polygon>
    </defs>
    <g id="Icon-3" stroke="none" stroke-width="1" fill="none" fill-rule="evenodd">
        <g id="Group-44" transform="translate(25.000000, 2.000000)">
            <polygon id="Fill-1" fill="#484F59" points="20 81 22 81 22 33 20 33"></polygon>
            <g id="Group-43">
                <path d="M4.27955,65.6992372 C7.2523,68.6436821 11.769175,69.3978303 16.369925,68.1944603 C17.58405,63.6423457 16.823675,59.1691853 13.8468,56.2247404 C10.87405,53.2816568 6.3558,52.5261473 1.759175,53.7295173 C0.5423,58.2816319 1.305425,62.753431 4.27955,65.6992372" id="Fill-2" fill="#D5E962"></path>
                <path d="M2.750825,54.7119519 C1.846075,58.7835352 2.695825,62.4535414 5.126825,64.8602814 C7.555075,67.2670214 11.26345,68.1096526 15.378825,67.2125702 C16.280825,63.1355418 15.4297,59.4668969 13.00145,57.0628794 C10.57045,54.658862 6.864825,53.8189533 2.750825,54.7119519 M12.2397,69.9351268 C8.770575,69.9351268 5.687825,68.7712339 3.432825,66.5373762 C0.248325,63.3846557 -0.782925,58.6052077 0.6017,53.4269052 L0.779075,52.7585175 L1.4542,52.5842739 C6.6847,51.2134667 11.512325,52.2357867 14.69545,55.3857846 C17.8772,58.5357825 18.909825,63.312508 17.52795,68.4962557 L17.350575,69.1646433 L16.67545,69.3402482 C15.153325,69.7391027 13.6642,69.9351268 12.2397,69.9351268" id="Fill-4" fill="#484F59"></path>
                <polygon id="Fill-6" fill="#484F59" points="20.3726875 73.8362781 0.9123125 54.5701067 2.6063125 52.8930118 22.0666875 72.1605445"></polygon>
                <polygon id="Fill-8" fill="#484F59" points="11.852775 65.4080598 3.498275 65.1235526 3.580775 62.7535671 11.935275 63.0380743"></polygon>
                <polygon id="Fill-10" fill="#484F59" points="9.9165 63.0098958 9.271625 53.8593833 11.661375 53.6946686 12.30625 62.8451812"></polygon>
                <path d="M38.3846375,65.6992372 C35.4105125,68.6436821 30.8936375,69.3978303 26.2942625,68.1944603 C25.0801375,63.6423457 25.8391375,59.1691853 28.8160125,56.2247404 C31.7901375,53.2816568 36.3083875,52.5261473 40.9050125,53.7295173 C42.1191375,58.2816319 41.3587625,62.753431 38.3846375,65.6992372" id="Fill-12" fill="#D5E962"></path>
                <g id="Group-16" transform="translate(24.422619, 51.728574)">
                    <mask id="mask-2" fill="white">
                        <use xlink:href="#path-1"></use>
                    </mask>
                    <g id="Clip-15"></g>
                    <path d="M2.86329345,15.4834513 C6.97729345,16.3791724 10.6856685,15.5365412 13.1152935,13.1311625 C15.5435435,10.7271451 16.3946685,7.05713883 15.4899185,2.98283295 C11.3759185,2.08847313 7.66891845,2.9297431 5.24066845,5.33376053 C2.81104345,7.73913924 1.95991845,11.4077842 2.86329345,15.4834513 M6.00104345,18.2060079 C4.57654345,18.2060079 3.08879345,18.0099838 1.56529345,17.6111293 L0.890168452,17.4368857 L0.712793452,16.7671368 C-0.669081548,11.5847504 0.363543452,6.80666362 3.54666845,3.6566657 C6.72979345,0.508029052 11.5560435,-0.51565221 16.7879185,0.855155011 L17.4616685,1.03075991 L17.6404185,1.69778626 C19.0222935,6.87881137 17.9910435,11.6568981 14.8092935,14.8082573 L13.9622935,13.9710712 L14.8092935,14.8082573 C12.5529185,17.0434762 9.47016845,18.2060079 6.00104345,18.2060079" id="Fill-14" fill="#484F59" mask="url(#mask-2)"></path>
                </g>
                <polygon id="Fill-17" fill="#484F59" points="22.2908125 73.8362781 20.5981875 72.1605445 40.0571875 52.8930118 41.7511875 54.5701067"></polygon>
                <polygon id="Fill-19" fill="#484F59" points="31.8896875 63.5390247 31.8071875 61.1690392 40.1603125 60.8831708 40.2428125 63.2531563"></polygon>
                <path d="M4.767675,17.8564316 C4.767675,8.79576344 12.1803,1.45711226 21.330925,1.45711226 C30.48155,1.45711226 37.89555,8.79576344 37.89555,17.8564316 C37.89555,18.391414 37.4968,25.9696501 31.255675,33.9249604 C29.43105,36.324894 29.732175,41.1492642 29.7473,41.1492642 L22.502425,41.1492642 L20.151175,41.1492642 L12.871925,41.1492642 C12.888425,41.1492642 13.22255,36.324894 11.403425,33.9249604 C5.155425,25.964205 4.767675,18.391414 4.767675,17.8564316" id="Fill-21" fill="#FFC400"></path>
                <path d="M34.829025,17.6197053 C34.829025,23.957817 29.639775,29.0952812 23.2364,29.0952812 C16.8344,29.0952812 11.64515,23.957817 11.64515,17.6197053 C11.64515,11.2815937 16.8344,6.14140693 23.2364,6.14140693 C29.639775,6.14140693 34.829025,11.2815937 34.829025,17.6197053" id="Fill-23" fill="#FFDC69"></path>
                <path d="M14.103925,39.963863 L28.5208,39.963863 C28.54005,38.0403768 28.937425,35.0020037 30.298675,33.2119228 C36.50955,25.2960896 36.697925,17.9288516 36.697925,17.8567039 C36.697925,9.46850716 29.803675,2.6430579 21.330925,2.6430579 C12.858175,2.6430579 5.9653,9.46850716 5.9653,17.8567039 C5.9653,17.9288516 6.148175,25.2974509 12.349425,33.1969487 C13.771175,35.0727902 14.10805,38.070325 14.103925,39.963863 Z M29.7473,42.3352098 L12.871925,42.3352098 L12.871925,41.1495364 L11.68255,41.010686 C11.749925,40.3177954 11.802175,36.4259008 10.44505,34.6371812 C3.75705,26.1142179 3.57005,17.935658 3.57005,17.8567039 C3.57005,8.16031874 11.5368,0.271711143 21.330925,0.271711143 C31.12505,0.271711143 39.093175,8.16031874 39.093175,17.8567039 C39.093175,17.935658 38.906175,26.1060502 32.201675,34.6521552 C30.8528,36.4272621 30.876175,40.3273243 30.936675,41.0188537 L29.7473,41.1223109 L29.7473,42.3352098 Z" id="Fill-25" fill="#484F59"></path>
                <path d="M17.158075,41.0818809 L14.047825,22.0947715" id="Fill-27" fill="#41A9D8"></path>
                <polygon id="Fill-29" fill="#484F59" points="15.9757125 41.2719153 12.8654625 22.284806 15.2304625 21.9036481 18.3393375 40.8921187"></polygon>
                <path d="M25.508175,41.0832422 L28.615675,22.0947715" id="Fill-31" fill="#41A9D8"></path>
                <polygon id="Fill-33" fill="#484F59" points="26.6897125 41.2732766 24.3260875 40.89348 27.4335875 21.9036481 29.7972125 22.284806"></polygon>
                <polygon id="Fill-35" fill="#484F59" points="15.6831125 26.1038722 13.3552375 23.5405852 15.1372375 21.954696 15.6803625 22.5550197 17.1131125 20.9718531 18.5499875 22.5550197 19.9841125 20.9732144 21.4223625 22.556381 22.8606125 20.9732144 24.2961125 22.556381 25.7343625 20.9772982 27.1753625 22.5591035 27.7281125 21.9533347 29.5059875 23.5419465 27.1753625 26.0984271 25.7357375 24.517983 24.2933625 26.1011496 22.8592375 24.5207055 21.4209875 26.1011496 19.9854875 24.5220668 18.5513625 26.1025109 17.1158625 24.5220668"></polygon>
                <path d="M30.8570625,44.7509342 C30.8570625,44.113856 30.4211875,43.58568 29.8299375,43.4196041 C30.4211875,43.2562507 30.8570625,42.7280747 30.8570625,42.0923578 C30.8570625,41.3463773 30.2575625,40.7446923 29.5081875,40.7120216 L26.6949375,40.7120216 L15.9671875,40.7120216 L13.1539375,40.7120216 C12.4059375,40.7446923 11.8064375,41.3463773 11.8064375,42.0923578 C11.8064375,42.7280747 12.2409375,43.2562507 12.8335625,43.4196041 C12.2409375,43.58568 11.8064375,44.113856 11.8064375,44.7509342 C11.8064375,45.3839286 12.2409375,45.9134659 12.8335625,46.0781805 C12.2409375,46.2428952 11.8064375,46.7697099 11.8064375,47.4054269 C11.8064375,48.1514073 12.4059375,48.7544536 13.1539375,48.7871243 L13.1539375,48.9082781 C13.1539375,49.9292368 13.9940625,50.7555327 15.0294375,50.7555327 L17.8440625,50.7555327 L24.8180625,50.7555327 L27.6326875,50.7555327 C28.6680625,50.7555327 29.5081875,49.9292368 29.5081875,48.9082781 L29.5081875,48.7871243 C30.2575625,48.7544536 30.8570625,48.1514073 30.8570625,47.4054269 C30.8570625,46.7697099 30.4211875,46.2428952 29.8299375,46.0781805 C30.4211875,45.9134659 30.8570625,45.3839286 30.8570625,44.7509342" id="Fill-37" fill="#E5E8EC"></path>
                <path d="M13.15325,41.8981033 C13.091375,41.9021872 13.003375,41.9865864 13.003375,42.0927661 C13.003375,42.1921394 13.079,42.2588421 13.154625,42.2779 L13.156,44.5621249 C13.080375,44.5839054 13.003375,44.6492467 13.003375,44.7513426 C13.003375,44.8493546 13.080375,44.914696 13.156,44.9351152 L13.157375,47.2179788 C13.08175,47.2397593 13.003375,47.3064619 13.003375,47.4058352 C13.003375,47.5106537 13.091375,47.5977755 13.20275,47.600498 L14.350875,48.7875327 L14.350875,48.9073252 C14.350875,49.2721477 14.656125,49.5702677 15.030125,49.5702677 L27.633375,49.5702677 C28.006,49.5702677 28.309875,49.2721477 28.309875,48.9073252 L28.309875,48.7875327 L29.458,47.600498 C29.57075,47.5977755 29.65875,47.5106537 29.65875,47.4058352 C29.65875,47.3064619 29.58175,47.2397593 29.50475,47.2179788 L29.506125,44.9351152 C29.583125,44.914696 29.65875,44.8493546 29.65875,44.7513426 C29.65875,44.6492467 29.583125,44.5839054 29.506125,44.5621249 L29.5075,42.2779 C29.583125,42.2588421 29.65875,42.1921394 29.65875,42.0927661 C29.65875,41.9865864 29.57075,41.9021872 29.456625,41.8967421 L13.15325,41.8981033 Z M27.633375,51.9416144 L15.030125,51.9416144 C13.616625,51.9416144 12.4245,50.9968873 12.065625,49.7132019 C11.198,49.2966508 10.608125,48.4186263 10.608125,47.4058352 C10.608125,46.9266653 10.745625,46.4692758 10.987625,46.0772276 C10.745625,45.6851795 10.608125,45.2291513 10.608125,44.7513426 C10.608125,44.2708114 10.745625,43.8134219 10.987625,43.4213737 C10.745625,43.0293256 10.608125,42.5719361 10.608125,42.0927661 C10.608125,40.7137912 11.704,39.5866528 13.102375,39.5281179 L29.508875,39.5267566 C30.958125,39.5866528 32.055375,40.7137912 32.055375,42.0927661 C32.055375,42.5719361 31.9165,43.0293256 31.6745,43.4213737 C31.9165,43.8134219 32.055375,44.2708114 32.055375,44.7513426 C32.055375,45.2291513 31.9165,45.6851795 31.6745,46.0772276 C31.9165,46.4692758 32.055375,46.9266653 32.055375,47.4058352 C32.055375,48.4199875 31.464125,49.2966508 30.5965,49.7132019 C30.237625,50.9968873 29.0455,51.9416144 27.633375,51.9416144 Z" id="Fill-39" fill="#484F59"></path>
                <mask id="mask-4" fill="white">
                    <use xlink:href="#path-3"></use>
                </mask>
                <g id="Clip-42"></g>
                <polygon id="Fill-41" fill="#484F59" mask="url(#mask-4)" points="12.626625 46.4093795 20.873875 46.4093795 20.873875 44.0380328 12.626625 44.0380328"></polygon>
            </g>
        </g>
    </g>
</svg>