<?xml version="1.0" encoding="UTF-8"?>
<svg width="53px" height="53px" viewBox="0 0 53 53" version="1.1" xmlns="http://www.w3.org/2000/svg" xmlns:xlink="http://www.w3.org/1999/xlink">
    <!-- Generator: Sketch 51.1 (57501) - http://www.bohemiancoding.com/sketch -->
    <title>Dollars</title>
    <desc>Created with Sketch.</desc>
    <defs></defs>
    <g id="Dollars" stroke="none" stroke-width="1" fill="none" fill-rule="evenodd">
        <circle id="Oval-Copy-2" fill="#7ED321" opacity="0.149609375" cx="26" cy="27" r="25"></circle>
        <path d="M26.76,25.15 C27.9200058,25.4500015 28.8499965,25.7699983 29.55,26.11 C30.5100048,26.5700023 31.2399975,27.1199968 31.74,27.76 C32.340003,28.5400039 32.64,29.4899944 32.64,30.61 C32.64,31.8300061 32.2100043,32.8299961 31.35,33.61 C30.5899962,34.3100035 29.5500066,34.7899987 28.23,35.05 L28.23,37.75 L24.48,37.75 L24.48,35.05 C23.1999936,34.7699986 22.160004,34.2500038 21.36,33.49 C20.4799956,32.6499958 20.0000004,31.5700066 19.92,30.25 L22.68,30.25 C22.7200002,31.050004 23.0199972,31.6699978 23.58,32.11 C24.2200032,32.6300026 25.1499939,32.89 26.37,32.89 C27.5900061,32.89 28.499997,32.6300026 29.1,32.11 C29.5400022,31.709998 29.76,31.2300028 29.76,30.67 C29.76,29.9899966 29.5200024,29.4300022 29.04,28.99 C28.439997,28.4099971 27.4300071,27.9500017 26.01,27.61 C24.1299906,27.1699978 22.7200047,26.5700038 21.78,25.81 C20.6999946,24.9299956 20.16,23.8100068 20.16,22.45 C20.16,21.2899942 20.5799958,20.3000041 21.42,19.48 C22.2000039,18.7199962 23.2199937,18.2100013 24.48,17.95 L24.48,15.25 L28.23,15.25 L28.23,18.01 C29.5100064,18.3100015 30.5099964,18.9099955 31.23,19.81 C31.8900033,20.6500042 32.2399998,21.6299944 32.28,22.75 L29.52,22.75 C29.4599997,20.9899912 28.4100102,20.11 26.37,20.11 C25.3299948,20.11 24.510003,20.3249978 23.91,20.755 C23.309997,21.1850021 23.01,21.7499965 23.01,22.45 C23.01,23.050003 23.2899972,23.5599979 23.85,23.98 C24.4100028,24.4000021 25.3799931,24.7899982 26.76,25.15 Z" id="attach_money---material" fill="#64AD6A"></path>
    </g>
</svg>