<?xml version="1.0" encoding="UTF-8"?>
<svg width="53px" height="53px" viewBox="0 0 53 53" version="1.1" xmlns="http://www.w3.org/2000/svg" xmlns:xlink="http://www.w3.org/1999/xlink">
    <!-- Generator: Sketch 51.1 (57501) - http://www.bohemiancoding.com/sketch -->
    <title>House</title>
    <desc>Created with Sketch.</desc>
    <defs></defs>
    <g id="House" stroke="none" stroke-width="1" fill="none" fill-rule="evenodd">
        <circle id="Oval-Copy" fill="#0DA8D9" opacity="0.149609375" cx="26" cy="27" r="25"></circle>
        <path d="M38.3046875,23.6992188 C38.5195323,23.8945322 38.6367187,24.1386704 38.65625,24.4316406 C38.6757813,24.7246108 38.5878916,24.9785146 38.3925781,25.1933594 C38.1972646,25.4082042 37.9531265,25.5253905 37.6601562,25.5449219 C37.367186,25.5644532 37.1132823,25.4765635 36.8984375,25.28125 L26,14.7929688 L15.1015625,25.28125 C14.8867177,25.4765635 14.632814,25.5644532 14.3398438,25.5449219 C14.0468735,25.5253905 13.8027354,25.4082042 13.6074219,25.1933594 C13.4121084,24.9785146 13.3242187,24.7246108 13.34375,24.4316406 C13.3632813,24.1386704 13.4804677,23.8945322 13.6953125,23.6992188 L24.59375,13.2109375 C24.984377,12.8593732 25.4531223,12.6835938 26,12.6835938 C26.5468777,12.6835938 27.015623,12.8593732 27.40625,13.2109375 L38.3046875,23.6992188 Z M35.4042969,27.5957031 C35.6972671,27.5957031 35.946288,27.6982412 36.1513672,27.9033203 C36.3564463,28.1083995 36.4589844,28.3574204 36.4589844,28.6503906 L36.4589844,36.765625 C36.4589844,37.3515654 36.2539083,37.8496073 35.84375,38.2597656 C35.4335917,38.6699239 34.9355498,38.875 34.3496094,38.875 L17.6503906,38.875 C17.0644502,38.875 16.5664083,38.6699239 16.15625,38.2597656 C15.7460917,37.8496073 15.5410156,37.3515654 15.5410156,36.765625 L15.5410156,28.6503906 C15.5410156,28.3574204 15.6435537,28.1083995 15.8486328,27.9033203 C16.053712,27.6982412 16.3027329,27.5957031 16.5957031,27.5957031 C16.8886733,27.5957031 17.1376943,27.6982412 17.3427734,27.9033203 C17.5478526,28.1083995 17.6503906,28.3574204 17.6503906,28.6503906 L17.6503906,36.765625 L21.8398438,36.765625 L21.8398438,29.734375 C21.8398438,29.1484346 22.0449198,28.6503927 22.4550781,28.2402344 C22.8652364,27.8300761 23.3632783,27.625 23.9492188,27.625 L28.0507812,27.625 C28.6367217,27.625 29.1347636,27.8300761 29.5449219,28.2402344 C29.9550802,28.6503927 30.1601562,29.1484346 30.1601562,29.734375 L30.1601562,36.765625 L34.3496094,36.765625 L34.3496094,28.6503906 C34.3496094,28.3574204 34.4521474,28.1083995 34.6572266,27.9033203 C34.8623057,27.6982412 35.1113267,27.5957031 35.4042969,27.5957031 Z M23.9492188,29.734375 L23.9492188,36.765625 L28.0507812,36.765625 L28.0507812,29.734375 L23.9492188,29.734375 Z" id="home---anticon" fill="#0DA8D9"></path>
    </g>
</svg>