<?xml version="1.0" encoding="UTF-8"?>
<svg width="95px" height="80px" viewBox="0 0 95 80" version="1.1" xmlns="http://www.w3.org/2000/svg" xmlns:xlink="http://www.w3.org/1999/xlink">
    <!-- Generator: Sketch 51.1 (57501) - http://www.bohemiancoding.com/sketch -->
    <title>Icon 1</title>
    <desc>Created with Sketch.</desc>
    <defs>
        <polygon id="path-1" points="0 0.704337349 80.52264 0.704337349 80.52264 33.7315181 0 33.7315181"></polygon>
        <polygon id="path-3" points="0 74 89.9064 74 89.9064 0.490361446 0 0.490361446"></polygon>
    </defs>
    <g id="Icon-1" stroke="none" stroke-width="1" fill="none" fill-rule="evenodd">
        <g id="Group-38" transform="translate(2.000000, 3.000000)">
            <polygon id="Fill-1" fill="#FFFFFF" points="35 75 45 75 45 63 35 63"></polygon>
            <path d="M34,74 L47,74 L47,61 L34,61 L34,74 Z M36.7209935,71.5105324 L44.2790065,71.5105324 L44.2790065,63.4894676 L36.7209935,63.4894676 L36.7209935,71.5105324 Z" id="Fill-2" fill="#484F59"></path>
            <path d="M27,73 L52,73 L27,73 Z" id="Fill-3" fill="#FFFFFF"></path>
            <polygon id="Fill-4" fill="#484F59" points="27 75 52 75 52 72 27 72"></polygon>
            <polygon id="Fill-5" fill="#484F59" points="65.0328002 1 63 9.4239492 65.9671998 10 68 1.5760508"></polygon>
            <polygon id="Fill-6" fill="#484F59" points="50.5199653 11 48 2.82754467 50.4800347 2 53 10.1724553"></polygon>
            <polygon id="Fill-7" fill="#484F59" points="41.2184911 18 35 12.0660158 36.7815089 10 43 15.9330544"></polygon>
            <polygon id="Fill-8" fill="#484F59" points="36.4255898 29 28 26.9678007 28.5744102 24 37 26.0311867"></polygon>
            <polygon id="Fill-9" fill="#484F59" points="29.8275447 42 29 39.5203958 37.1724553 37 38 39.4804721"></polygon>
            <polygon id="Fill-10" fill="#484F59" points="39.0662252 56 37 54.2186879 42.9337748 48 45 49.7813121"></polygon>
            <polygon id="Fill-11" fill="#484F59" points="54.9658102 62 52 61.4238911 54.0341898 53 57 53.5761089"></polygon>
            <polygon id="Fill-12" fill="#484F59" points="68.5186729 61 66 52.8275447 68.4813271 52 71 60.1724553"></polygon>
            <polygon id="Fill-13" fill="#484F59" points="81.2179006 53 75 47.0660158 76.7812155 45 83 50.9330544"></polygon>
            <polygon id="Fill-14" fill="#484F59" points="81 36.9653986 89.423775 39 90 36.0335896 81.5753176 34"></polygon>
            <polygon id="Fill-15" fill="#484F59" points="80.8276277 25 80 22.5195346 88.1723723 20 89 22.4813336"></polygon>
            <polygon id="Fill-16" fill="#484F59" points="76.0664653 16 74 14.2182943 79.9335347 8 82 9.7817057"></polygon>
            <g id="Group-37">
                <path d="M77.17941,30.9305735 C77.17941,40.7779229 69.11541,48.7636819 59.17851,48.7636819 C49.23621,48.7636819 41.17851,40.7779229 41.17851,30.9305735 C41.17851,21.0858988 49.23621,13.0992482 59.17851,13.0992482 C69.11541,13.0992482 77.17941,21.0858988 77.17941,30.9305735" id="Fill-17" fill="#FFDC69"></path>
                <path d="M59.17851,14.4365976 C49.99761,14.4365976 42.52851,21.835706 42.52851,30.9305735 C42.52851,40.0263325 49.99761,47.4263325 59.17851,47.4263325 C68.35941,47.4263325 75.82941,40.0263325 75.82941,30.9305735 C75.82941,21.835706 68.35941,14.4365976 59.17851,14.4365976 M59.17851,50.1010313 C48.50901,50.1010313 39.82851,41.5009831 39.82851,30.9305735 C39.82851,20.3610554 48.50901,11.7618988 59.17851,11.7618988 C69.84801,11.7618988 78.52941,20.3610554 78.52941,30.9305735 C78.52941,41.5009831 69.84801,50.1010313 59.17851,50.1010313" id="Fill-19" fill="#484F59"></path>
                <path d="M71.32941,30.9305735 C71.32941,37.5780916 65.88711,42.9685012 59.17851,42.9685012 C52.46631,42.9685012 47.02851,37.5780916 47.02851,30.9305735 C47.02851,24.2866217 52.46631,18.8944289 59.17851,18.8944289 C65.88711,18.8944289 71.32941,24.2866217 71.32941,30.9305735" id="Fill-21" fill="#FFC400"></path>
                <path d="M78.43446,64.4905542 L2.08836,64.4905542 C6.68556,54.3730602 11.28456,44.2564578 15.88446,34.1380723 L64.63656,34.1380723 C69.23556,44.2555663 73.83456,54.3721687 78.43446,64.4905542" id="Fill-23" fill="#FFFFFF"></path>
                <g id="Group-27" transform="translate(0.000000, 32.096386)">
                    <mask id="mask-2" fill="white">
                        <use xlink:href="#path-1"></use>
                    </mask>
                    <g id="Clip-26"></g>
                    <path d="M4.17654,31.0568193 L76.34574,31.0568193 L63.76374,3.37903614 L16.75764,3.37903614 L4.17654,31.0568193 Z M80.52264,33.7315181 L-0.00036,33.7315181 L15.01164,0.704337349 L65.50884,0.704337349 L80.52264,33.7315181 Z" id="Fill-25" fill="#484F59" mask="url(#mask-2)"></path>
                </g>
                <mask id="mask-4" fill="white">
                    <use xlink:href="#path-3"></use>
                </mask>
                <g id="Clip-29"></g>
                <polygon id="Fill-28" fill="#484F59" mask="url(#mask-4)" points="6.1713 57.9375422 74.8467 57.9375422 74.8467 55.2628434 6.1713 55.2628434"></polygon>
                <polygon id="Fill-30" fill="#484F59" mask="url(#mask-4)" points="9.558 50.3770602 71.4105 50.3770602 71.4105 47.7023614 9.558 47.7023614"></polygon>
                <polygon id="Fill-31" fill="#484F59" mask="url(#mask-4)" points="12.9447 42.8156867 67.9734 42.8156867 67.9734 40.140988 12.9447 40.140988"></polygon>
                <polygon id="Fill-32" fill="#484F59" mask="url(#mask-4)" points="16.78626 64.4278771 14.19516 63.673612 23.09616 33.6501181 25.68726 34.4043831"></polygon>
                <polygon id="Fill-33" fill="#484F59" mask="url(#mask-4)" points="29.34756 64.2432337 26.67546 63.8580771 31.07646 33.8354747 33.74856 34.2197398"></polygon>
                <polygon id="Fill-34" fill="#484F59" mask="url(#mask-4)" points="39.18339 64.0552024 39.08439 34.0317084 41.78439 34.0227928 41.88339 64.0462867"></polygon>
                <polygon id="Fill-35" fill="#484F59" mask="url(#mask-4)" points="51.71922 64.2510795 47.12202 34.2275855 49.79142 33.8272723 54.38952 63.8507663"></polygon>
                <polygon id="Fill-36" fill="#484F59" mask="url(#mask-4)" points="64.28061 64.4348313 55.18521 34.4113373 57.77091 33.6436988 66.86631 63.6671928"></polygon>
            </g>
        </g>
    </g>
</svg>