<?xml version="1.0" encoding="UTF-8"?>
<svg width="53px" height="53px" viewBox="0 0 53 53" version="1.1" xmlns="http://www.w3.org/2000/svg" xmlns:xlink="http://www.w3.org/1999/xlink">
    <!-- Generator: Sketch 51.1 (57501) - http://www.bohemiancoding.com/sketch -->
    <title>Sun</title>
    <desc>Created with Sketch.</desc>
    <defs></defs>
    <g id="Sun" stroke="none" stroke-width="1" fill="none" fill-rule="evenodd">
        <circle id="Oval" fill="#F5CA23" opacity="0.398828125" cx="26" cy="26" r="25"></circle>
        <path d="M35.6428865,26.2857015 C35.6428865,20.9620345 31.3236849,16.6428329 26.0000179,16.6428329 C20.6763508,16.6428329 16.3571492,20.9620345 16.3571492,26.2857015 C16.3571492,31.6093686 20.6763508,35.9285702 26.0000179,35.9285702 C31.3236849,35.9285702 35.6428865,31.6093686 35.6428865,26.2857015 Z M40.2634277,30.9229838 C40.2132045,31.0903947 40.0792757,31.2075824 39.9286059,31.2578057 L35.0402072,32.8649504 L35.0402072,37.9877244 C35.0402072,38.1551353 34.9565018,38.3225462 34.822573,38.4229928 C34.6719032,38.5234393 34.5044923,38.5569215 34.3370814,38.4899571 L29.4486827,36.9162945 L26.4352863,41.0680852 C26.3348397,41.2020139 26.1674288,41.2857194 26.0000179,41.2857194 C25.832607,41.2857194 25.6651961,41.2020139 25.5647495,41.0680852 L22.5513531,36.9162945 L17.6629544,38.4899571 C17.4955435,38.5569215 17.3281325,38.5234393 17.1774627,38.4229928 C17.043534,38.3225462 16.9598285,38.1551353 16.9598285,37.9877244 L16.9598285,32.8649504 L12.0714298,31.2578057 C11.92076,31.2075824 11.7868313,31.0903947 11.736608,30.9229838 C11.6863847,30.7555729 11.7031258,30.5714209 11.8035724,30.4374922 L14.8169688,26.2857015 L11.8035724,22.1339108 C11.7031258,21.983241 11.6863847,21.8158301 11.736608,21.6484192 C11.7868313,21.4810083 11.92076,21.3638206 12.0714298,21.3135974 L16.9598285,19.7064526 L16.9598285,14.5836786 C16.9598285,14.4162677 17.043534,14.2488568 17.1774627,14.1484103 C17.3281325,14.0479637 17.4955435,14.0144815 17.6629544,14.0814459 L22.5513531,15.6551085 L25.5647495,11.5033178 C25.7656426,11.2354604 26.2343932,11.2354604 26.4352863,11.5033178 L29.4486827,15.6551085 L34.3370814,14.0814459 C34.5044923,14.0144815 34.6719032,14.0479637 34.822573,14.1484103 C34.9565018,14.2488568 35.0402072,14.4162677 35.0402072,14.5836786 L35.0402072,19.7064526 L39.9286059,21.3135974 C40.0792757,21.3638206 40.2132045,21.4810083 40.2634277,21.6484192 C40.313651,21.8158301 40.2969099,21.983241 40.1964634,22.1339108 L37.1830669,26.2857015 L40.1964634,30.4374922 C40.2969099,30.5714209 40.313651,30.7555729 40.2634277,30.9229838 Z" id="sun-o---FontAwesome" fill="#D99F00"></path>
    </g>
</svg>