<?xml version="1.0" encoding="UTF-8"?>
<svg width="135px" height="18px" viewBox="0 0 135 18" version="1.1" xmlns="http://www.w3.org/2000/svg" xmlns:xlink="http://www.w3.org/1999/xlink">
    <!-- Generator: Sketch 52.6 (67491) - http://www.bohemiancoding.com/sketch -->
    <title>Group</title>
    <desc>Created with Sketch.</desc>
    <defs>
        <polygon id="path-1" points="0.06 0.876 24.211 0.876 24.211 14.94 0.06 14.94"></polygon>
    </defs>
    <g id="Page-1" stroke="none" stroke-width="1" fill="none" fill-rule="evenodd">
        <g id="Group">
            <g id="Group-4" transform="translate(0.000000, 3.000000)">
                <mask id="mask-2" fill="white">
                    <use xlink:href="#path-1"></use>
                </mask>
                <g id="Clip-2"></g>
                <path d="M4.753,2.097 L4.793,2.097 C5.545,1.197 6.373,0.876 7.434,0.876 C8.434,0.876 9.132,1.356 9.421,2.157 C10.269,1.276 11.154,0.876 12.314,0.876 C13.655,0.876 14.665,1.677 14.367,3.077 L12.643,11.179 L9.822,11.179 L11.303,4.217 C11.495,3.317 11.484,2.617 10.584,2.617 C9.684,2.617 9.375,3.317 9.183,4.217 L7.702,11.179 L4.941,11.179 L6.422,4.217 C6.614,3.317 6.603,2.617 5.703,2.617 C4.803,2.617 4.494,3.317 4.302,4.217 L2.82,11.179 L0,11.179 L2.15,1.077 L4.97,1.077 L4.753,2.097" id="Fill-1" fill="#FFFFFF" mask="url(#mask-2)"></path>
                <polyline id="Fill-3" fill="#FFFFFF" mask="url(#mask-2)" points="16.263 11.259 15.689 1.077 18.49 1.077 18.419 8.178 18.459 8.178 21.491 1.077 24.211 1.077 17.347 15 14.387 15 16.263 11.259"></polyline>
            </g>
            <polyline id="Fill-5" fill="#0090BD" points="34.253 -8.8817842e-16 33.742 2.4 30.381 2.4 27.819 14.443 24.798 14.443 27.36 2.4 24 2.4 24.511 -8.8817842e-16 34.253 -8.8817842e-16"></polyline>
            <path d="M35.831,4.201 L35.554,5.501 L35.594,5.501 C36.361,4.341 37.394,4 38.534,4 L37.997,6.521 C35.551,6.361 35.204,7.801 34.991,8.802 L33.821,14.303 L31,14.303 L33.15,4.201 L35.831,4.201" id="Fill-6" fill="#0090BD"></path>
            <path d="M42.7844665,14.081 L42.7444665,14.081 C41.9934665,14.982 41.1644665,15.302 40.1044665,15.302 C38.7644665,15.302 37.7544665,14.501 38.0524665,13.102 L39.7764665,5 L42.5974665,5 L41.1064665,12.001 C40.9154665,12.902 40.9354665,13.562 41.8354665,13.562 C42.7354665,13.562 43.0364665,12.902 43.2274665,12.001 L44.7174665,5 L47.5384665,5 L45.8134665,13.102 C45.6734665,13.762 45.5684665,14.442 45.4884665,15.102 L42.5674665,15.102 L42.7844665,14.081" id="Fill-7" fill="#0090BD"></path>
            <path d="M53.9753424,8.121 C54.1843424,7.141 54.5223424,5.741 53.1823424,5.741 C51.8823424,5.741 51.5783424,7.261 51.3953424,8.121 L53.9753424,8.121 Z M51.0593424,9.702 C50.8033424,10.902 50.4603424,12.702 51.7003424,12.702 C52.7003424,12.702 53.1053424,11.742 53.2833424,10.902 L56.1443424,10.902 C55.8703424,12.002 55.3193424,12.902 54.5073424,13.522 C53.7143424,14.143 52.6373424,14.503 51.3173424,14.503 C47.6763424,14.503 47.6693424,12.282 48.3423424,9.122 C48.9293424,6.361 49.8313424,4 53.5523424,4 C57.3533424,4 57.2493424,6.461 56.4603424,9.702 L51.0593424,9.702 Z" id="Fill-8" fill="#0090BD"></path>
            <path d="M58.5936675,7.461 C59.4066675,3.64 60.1816675,8.8817842e-16 65.1626675,8.8817842e-16 C68.2436675,8.8817842e-16 69.1216675,1.7 68.3416675,4.8 L65.3816675,4.8 C65.7896675,2.88 65.6036675,2.16 64.7026675,2.16 C63.0026675,2.16 62.4416675,3.76 61.6546675,7.461 C60.8666675,11.162 60.7466675,12.762 62.4466675,12.762 C63.8466675,12.762 64.1696675,10.962 64.4526675,9.821 L67.4336675,9.821 C66.6116675,13.683 64.8076675,14.923 61.9866675,14.923 C57.0056675,14.923 57.7886675,11.242 58.5936675,7.461" id="Fill-9" fill="#0090BD"></path>
            <path d="M74.7971268,8.962 C75.2441268,6.861 75.3701268,5.801 74.1691268,5.801 C72.9691268,5.801 72.6431268,6.861 72.1971268,8.962 C71.5401268,12.042 71.6611268,12.702 72.7011268,12.702 C73.7411268,12.702 74.1411268,12.042 74.7971268,8.962 Z M69.3421268,9.122 C69.9291268,6.361 70.8321268,4 74.5521268,4 C78.2731268,4 78.1711268,6.361 77.5841268,9.122 C76.9111268,12.282 75.9591268,14.503 72.3181268,14.503 C68.6771268,14.503 68.6691268,12.282 69.3421268,9.122 Z" id="Fill-10" fill="#0090BD"></path>
            <path d="M80.9576905,11.063 C80.8396905,11.522 80.7666905,11.962 80.8386905,12.282 C80.9306905,12.603 81.1966905,12.763 81.7566905,12.763 C82.3166905,12.763 82.8726905,12.402 83.0186905,11.723 C83.4736905,9.582 78.4106905,10.062 79.0956905,6.841 C79.5596905,4.661 81.8606905,4 83.6816905,4 C85.6016905,4 87.1466905,4.921 86.5226905,7.101 L83.7616905,7.101 C83.9106905,6.401 83.9196905,5.981 83.7576905,5.801 C83.6166905,5.621 83.3846905,5.581 83.0846905,5.581 C82.4646905,5.581 82.0396905,5.981 81.8946905,6.661 C81.5536905,8.262 86.5326905,8.182 85.8426905,11.422 C85.4676905,13.183 83.7476905,14.503 81.4066905,14.503 C78.9456905,14.503 77.4376905,13.883 78.1976905,11.063 L80.9576905,11.063" id="Fill-11" fill="#0090BD"></path>
            <path d="M87.6010026,4.861 L88.7420026,4.861 L89.0820026,3.26 L92.1710026,2 L91.5620026,4.861 L93.0220026,4.861 L92.6520026,6.601 L91.1920026,6.601 L90.0430026,12.002 C89.8810026,12.763 89.7540026,13.263 90.6750026,13.263 C90.8540026,13.263 91.0340026,13.263 91.1830026,13.223 L90.8120026,14.963 C90.4240026,15.003 90.0110026,15.062 89.3310026,15.062 C86.8900026,15.062 86.9150026,13.442 87.0480026,12.822 L88.3710026,6.601 L87.2310026,6.601 L87.6010026,4.861" id="Fill-12" fill="#0090BD"></path>
            <polyline id="Fill-13" fill="#FFFFFF" points="94.962 12 94.4 14.641 92 14.641 92.561 12 94.962 12"></polyline>
            <path d="M103.003686,7.801 C103.323686,6.301 103.049686,5.801 102.169686,5.801 C100.969686,5.801 100.643686,6.861 100.197686,8.962 C99.5416859,12.042 99.6616859,12.702 100.701686,12.702 C101.581686,12.702 102.171686,11.902 102.452686,10.582 L105.273686,10.582 C104.689686,13.322 102.958686,14.503 100.317686,14.503 C96.6766859,14.503 96.6696859,12.282 97.3416859,9.122 C97.9296859,6.361 98.8326859,4 102.552686,4 C105.153686,4 106.386686,5.161 105.825686,7.801 L103.003686,7.801" id="Fill-14" fill="#FFFFFF"></path>
            <path d="M111.797713,8.962 C112.243713,6.861 112.369713,5.801 111.169713,5.801 C109.969713,5.801 109.642713,6.861 109.196713,8.962 C108.540713,12.042 108.660713,12.702 109.700713,12.702 C110.740713,12.702 111.140713,12.042 111.797713,8.962 Z M106.341713,9.122 C106.929713,6.361 107.831713,4 111.552713,4 C115.272713,4 115.171713,6.361 114.583713,9.122 C113.910713,12.282 112.958713,14.503 109.316713,14.503 C105.676713,14.503 105.669713,12.282 106.341713,9.122 Z" id="Fill-15" fill="#FFFFFF"></path>
            <g id="Group-19" transform="translate(115.000000, 3.000000)" fill="#FFFFFF">
                <path d="M5.712,2.097 L5.752,2.097 C6.504,1.197 7.332,0.876 8.393,0.876 C9.393,0.876 10.091,1.356 10.381,2.157 C11.228,1.276 12.113,0.876 13.273,0.876 C14.613,0.876 15.624,1.677 15.325,3.077 L13.602,11.179 L10.781,11.179 L12.263,4.217 C12.454,3.317 12.443,2.617 11.543,2.617 C10.643,2.617 10.334,3.317 10.142,4.217 L8.66,11.179 L5.899,11.179 L7.381,4.217 C7.573,3.317 7.562,2.617 6.662,2.617 C5.762,2.617 5.452,3.317 5.261,4.217 L3.779,11.179 L0.959,11.179 L3.108,1.077 L5.93,1.077 L5.712,2.097" id="Fill-16"></path>
                <path d="M16.947,8.858 L17.211,8.858 C17.445,8.858 17.563,8.643 17.599,8.475 C17.651,8.229 17.552,8.133 17.366,8.133 L17.103,8.133 L16.947,8.858 Z M16.64,10.297 L16.052,10.297 L16.606,7.7 L17.692,7.7 C18.094,7.7 18.301,7.94 18.206,8.384 C18.135,8.714 17.944,8.96 17.548,9.02 L17.546,9.032 C17.67,9.038 18.048,9.068 17.947,9.535 C17.912,9.703 17.82,10.189 17.851,10.297 L17.275,10.297 C17.23,10.142 17.268,9.968 17.305,9.794 C17.37,9.487 17.475,9.224 17.019,9.224 L16.869,9.224 L16.64,10.297 Z M19.002,9.008 C19.216,8.007 18.573,7.197 17.584,7.197 C16.576,7.197 15.594,8.007 15.38,9.008 C15.166,10.01 15.8,10.831 16.808,10.831 C17.797,10.831 18.788,10.01 19.002,9.008 Z M19.422,9.008 C19.156,10.249 17.953,11.251 16.718,11.251 C15.477,11.251 14.694,10.249 14.96,9.008 C15.226,7.767 16.433,6.777 17.674,6.777 C18.909,6.777 19.687,7.767 19.422,9.008 Z" id="Fill-18"></path>
            </g>
        </g>
    </g>
</svg>